<mxfile host="Electron" modified="2023-11-11T01:55:52.737Z" agent="Mozilla/5.0 (Windows NT 10.0; Win64; x64) AppleWebKit/537.36 (KHTML, like Gecko) draw.io/22.0.2 Chrome/114.0.5735.289 Electron/25.8.4 Safari/537.36" etag="mG3z766cfdaKr4uq-_Hi" version="22.0.2" type="device">
  <diagram name="Página-1" id="PhvlJ08zT1fllb7dHKhp">
    <mxGraphModel dx="576" dy="339" grid="1" gridSize="10" guides="1" tooltips="1" connect="1" arrows="1" fold="1" page="1" pageScale="1" pageWidth="827" pageHeight="1169" math="0" shadow="0">
      <root>
        <mxCell id="0" />
        <mxCell id="1" parent="0" />
        <mxCell id="dVTIZYQYzZr3Aqc_5YMv-1" value="inicio" style="ellipse;whiteSpace=wrap;html=1;" parent="1" vertex="1">
          <mxGeometry x="340" y="170" width="120" height="80" as="geometry" />
        </mxCell>
        <mxCell id="dVTIZYQYzZr3Aqc_5YMv-3" value="" style="endArrow=classic;html=1;rounded=0;" parent="1" edge="1">
          <mxGeometry width="50" height="50" relative="1" as="geometry">
            <mxPoint x="399.73" y="250" as="sourcePoint" />
            <mxPoint x="399.73" y="290" as="targetPoint" />
          </mxGeometry>
        </mxCell>
        <mxCell id="dVTIZYQYzZr3Aqc_5YMv-4" value="Declarar: 305,Que show, Pasword, usuario" style="rounded=0;whiteSpace=wrap;html=1;" parent="1" vertex="1">
          <mxGeometry x="340" y="290" width="120" height="60" as="geometry" />
        </mxCell>
        <mxCell id="dVTIZYQYzZr3Aqc_5YMv-5" value="" style="endArrow=classic;html=1;rounded=0;" parent="1" edge="1">
          <mxGeometry width="50" height="50" relative="1" as="geometry">
            <mxPoint x="399.84000000000003" y="350" as="sourcePoint" />
            <mxPoint x="399.84000000000003" y="390" as="targetPoint" />
          </mxGeometry>
        </mxCell>
        <mxCell id="dVTIZYQYzZr3Aqc_5YMv-8" value="&quot;Digita tu usuario&quot;" style="rounded=0;whiteSpace=wrap;html=1;" parent="1" vertex="1">
          <mxGeometry x="340" y="390" width="120" height="60" as="geometry" />
        </mxCell>
        <mxCell id="dVTIZYQYzZr3Aqc_5YMv-9" value="" style="endArrow=classic;html=1;rounded=0;" parent="1" target="dVTIZYQYzZr3Aqc_5YMv-12" edge="1">
          <mxGeometry width="50" height="50" relative="1" as="geometry">
            <mxPoint x="399.75000000000006" y="450" as="sourcePoint" />
            <mxPoint x="399.75000000000006" y="490" as="targetPoint" />
          </mxGeometry>
        </mxCell>
        <mxCell id="dVTIZYQYzZr3Aqc_5YMv-10" value="" style="endArrow=classic;html=1;rounded=0;" parent="1" edge="1">
          <mxGeometry width="50" height="50" relative="1" as="geometry">
            <mxPoint x="399.75000000000006" y="650" as="sourcePoint" />
            <mxPoint x="399.75000000000006" y="690" as="targetPoint" />
          </mxGeometry>
        </mxCell>
        <mxCell id="dVTIZYQYzZr3Aqc_5YMv-11" value="" style="endArrow=classic;html=1;rounded=0;" parent="1" edge="1">
          <mxGeometry width="50" height="50" relative="1" as="geometry">
            <mxPoint x="399.75000000000006" y="550" as="sourcePoint" />
            <mxPoint x="399.75000000000006" y="590" as="targetPoint" />
          </mxGeometry>
        </mxCell>
        <mxCell id="dVTIZYQYzZr3Aqc_5YMv-12" value="leo usuario" style="rounded=0;whiteSpace=wrap;html=1;" parent="1" vertex="1">
          <mxGeometry x="340" y="490" width="120" height="60" as="geometry" />
        </mxCell>
        <mxCell id="dVTIZYQYzZr3Aqc_5YMv-13" value="&quot;Digita tu usuario&quot;" style="rounded=0;whiteSpace=wrap;html=1;" parent="1" vertex="1">
          <mxGeometry x="340" y="590" width="120" height="60" as="geometry" />
        </mxCell>
        <mxCell id="dVTIZYQYzZr3Aqc_5YMv-14" value="leo usuario" style="rounded=0;whiteSpace=wrap;html=1;" parent="1" vertex="1">
          <mxGeometry x="340" y="690" width="120" height="60" as="geometry" />
        </mxCell>
        <mxCell id="dVTIZYQYzZr3Aqc_5YMv-15" value="usuario == user and password == pass" style="rhombus;whiteSpace=wrap;html=1;" parent="1" vertex="1">
          <mxGeometry x="335" y="790" width="125" height="120" as="geometry" />
        </mxCell>
        <mxCell id="dVTIZYQYzZr3Aqc_5YMv-16" value="" style="endArrow=classic;html=1;rounded=0;" parent="1" edge="1">
          <mxGeometry width="50" height="50" relative="1" as="geometry">
            <mxPoint x="399.82000000000005" y="750" as="sourcePoint" />
            <mxPoint x="399.82000000000005" y="790" as="targetPoint" />
          </mxGeometry>
        </mxCell>
        <mxCell id="dVTIZYQYzZr3Aqc_5YMv-17" value="no" style="endArrow=classic;html=1;rounded=0;exitX=1;exitY=0.5;exitDx=0;exitDy=0;" parent="1" source="dVTIZYQYzZr3Aqc_5YMv-15" edge="1">
          <mxGeometry width="50" height="50" relative="1" as="geometry">
            <mxPoint x="480" y="850" as="sourcePoint" />
            <mxPoint x="535" y="920" as="targetPoint" />
            <Array as="points">
              <mxPoint x="535" y="850" />
            </Array>
          </mxGeometry>
        </mxCell>
        <mxCell id="dVTIZYQYzZr3Aqc_5YMv-18" value="si" style="endArrow=classic;html=1;rounded=0;" parent="1" edge="1">
          <mxGeometry width="50" height="50" relative="1" as="geometry">
            <mxPoint x="330" y="850" as="sourcePoint" />
            <mxPoint x="260" y="920" as="targetPoint" />
            <Array as="points">
              <mxPoint x="260" y="850" />
            </Array>
          </mxGeometry>
        </mxCell>
        <mxCell id="dVTIZYQYzZr3Aqc_5YMv-20" value="&quot;Bienvenido&quot;" style="rounded=0;whiteSpace=wrap;html=1;" parent="1" vertex="1">
          <mxGeometry x="200" y="920" width="120" height="60" as="geometry" />
        </mxCell>
        <mxCell id="dVTIZYQYzZr3Aqc_5YMv-26" value="&quot;¿Que haces aqui?" style="rounded=0;whiteSpace=wrap;html=1;" parent="1" vertex="1">
          <mxGeometry x="471" y="920" width="120" height="60" as="geometry" />
        </mxCell>
        <mxCell id="dVTIZYQYzZr3Aqc_5YMv-31" value="" style="endArrow=classic;html=1;rounded=0;entryX=1.023;entryY=0.653;entryDx=0;entryDy=0;entryPerimeter=0;" parent="1" target="dVTIZYQYzZr3Aqc_5YMv-1" edge="1">
          <mxGeometry width="50" height="50" relative="1" as="geometry">
            <mxPoint x="600" y="940" as="sourcePoint" />
            <mxPoint x="490" y="220" as="targetPoint" />
            <Array as="points">
              <mxPoint x="700" y="940" />
              <mxPoint x="700" y="220" />
            </Array>
          </mxGeometry>
        </mxCell>
        <mxCell id="dVTIZYQYzZr3Aqc_5YMv-32" value="" style="endArrow=classic;html=1;rounded=0;" parent="1" edge="1">
          <mxGeometry width="50" height="50" relative="1" as="geometry">
            <mxPoint x="250" y="980" as="sourcePoint" />
            <mxPoint x="340" y="1050" as="targetPoint" />
            <Array as="points">
              <mxPoint x="250" y="1050" />
            </Array>
          </mxGeometry>
        </mxCell>
        <mxCell id="dVTIZYQYzZr3Aqc_5YMv-33" value="Fin" style="ellipse;whiteSpace=wrap;html=1;" parent="1" vertex="1">
          <mxGeometry x="337.5" y="1010" width="120" height="80" as="geometry" />
        </mxCell>
      </root>
    </mxGraphModel>
  </diagram>
</mxfile>
